<?xml version="1.0" encoding="UTF-8" standalone="no"?>
<svg
   width="1482.62"
   height="508.013"
   viewBox="0 0 1482.62 508.013"
   version="1.1"
   xml:space="preserve"
   style="clip-rule:evenodd;fill-rule:evenodd;stroke-linejoin:round;stroke-miterlimit:2"
   id="svg31"
   sodipodi:docname="Horisontaalinen logo.svg"
   inkscape:version="1.2.1 (9c6d41e410, 2022-07-14)"
   inkscape:export-filename="Horisontaalinen logo.png"
   inkscape:export-xdpi="97.125359"
   inkscape:export-ydpi="97.125359"
   xmlns:inkscape="http://www.inkscape.org/namespaces/inkscape"
   xmlns:sodipodi="http://sodipodi.sourceforge.net/DTD/sodipodi-0.dtd"
   xmlns:xlink="http://www.w3.org/1999/xlink"
   xmlns="http://www.w3.org/2000/svg"
   xmlns:svg="http://www.w3.org/2000/svg"
   xmlns:rdf="http://www.w3.org/1999/02/22-rdf-syntax-ns#"
   xmlns:cc="http://creativecommons.org/ns#"
   xmlns:dc="http://purl.org/dc/elements/1.1/"><defs
   id="defs12"><linearGradient
     inkscape:collect="always"
     id="linearGradient936"><stop
       style="stop-color:#8c1eff;stop-opacity:1;"
       offset="0"
       id="stop932" /><stop
       style="stop-color:#ff901f;stop-opacity:1;"
       offset="1"
       id="stop934" /></linearGradient><linearGradient
     inkscape:collect="always"
     xlink:href="#linearGradient936"
     id="linearGradient938"
     x1="0.0053579998"
     y1="404.07037"
     x2="1482.6154"
     y2="103.94262"
     gradientUnits="userSpaceOnUse" /><clipPath
     id="_clip1">
                <path
   d="M 1472,126.055 H 197.41 C 120.252,126.055 64,187.549 64,271.896 v 106.27 h 1274.59 c 77.16,0 133.41,-61.494 133.41,-145.841 z"
   id="path11" />
            </clipPath></defs><title
   id="title1961">Insomnia XXII - Logo</title><sodipodi:namedview
   id="namedview33"
   pagecolor="#505050"
   bordercolor="#ffffff"
   borderopacity="1"
   inkscape:showpageshadow="0"
   inkscape:pageopacity="0"
   inkscape:pagecheckerboard="1"
   inkscape:deskcolor="#505050"
   showgrid="false"
   inkscape:zoom="1.2181093"
   inkscape:cx="837.77375"
   inkscape:cy="243.41001"
   inkscape:window-width="2560"
   inkscape:window-height="1369"
   inkscape:window-x="0"
   inkscape:window-y="0"
   inkscape:window-maximized="1"
   inkscape:current-layer="g271" />
    <g
   inkscape:groupmode="layer"
   id="layer1"
   inkscape:label="Background"
   style="clip-rule:evenodd;fill-rule:evenodd;stroke-linejoin:round;stroke-miterlimit:2"><path
     d="m 0.23,500.02678 11.08,-11.761 83,-45.193 292,-35.807 978.945,-175 116.679,-114.436 -0.448,33.091 c -2.454,82.484 -63.79,151.293 -145.45,163.173 C 966.621,367.83778 0,507.46578 0,507.46578 Z"
     style="clip-rule:evenodd;fill-rule:evenodd;stroke-linejoin:round;stroke-miterlimit:2;display:inline;fill:#fc901f"
     id="path5" /><path
     d="m 1482.39,8.24532 -11.08,11.761 -83,45.193 -292,35.807 -978.945,175 -116.6790024,114.436 0.448,-33.091 c 2.454,-82.484 63.7900004,-151.293 145.4500024,-163.173 369.415,-53.744 1336.036,-193.372 1336.036,-193.372 z"
     style="clip-rule:evenodd;fill-rule:evenodd;stroke-linejoin:round;stroke-miterlimit:2;display:inline;fill:#8c1dfd"
     id="path2" /><path
     d="M 1482.6153,-6.45e-5 140.48475,236.65306 C 59.238151,250.97899 0.005358,321.57058 0.005358,404.07038 V 508.01306 L 1342.1359,271.35994 c 81.2487,-14.3263 140.4794,-84.91752 140.4794,-167.41732 z"
     style="clip-rule:evenodd;fill-rule:evenodd;stroke-linejoin:round;stroke-miterlimit:2;display:inline;fill:url(#linearGradient938);stroke-width:1.01485;fill-opacity:1"
     id="path9" /><text
     xml:space="preserve"
     style="font-size:66.6667px;line-height:1.25;font-family:'Bebas Neue';-inkscape-font-specification:'Bebas Neue'"
     x="451.52115"
     y="-108.08789"
     id="text798"><tspan
       sodipodi:role="line"
       id="tspan796" /></text></g><g
   inkscape:groupmode="layer"
   id="g271"
   inkscape:label="XXII"
   style="clip-rule:evenodd;display:inline;fill-rule:evenodd;stroke-linejoin:round;stroke-miterlimit:2"><g
     id="g269"
     style="clip-rule:evenodd;fill:#0a0a0a;fill-opacity:0.15;fill-rule:evenodd;stroke-linejoin:round;stroke-miterlimit:2"
     transform="translate(-3.3601319,0.59190589)"><path
       style="fill:#0a0a0a;fill-opacity:0.15;stroke:none;stroke-width:1px;stroke-linecap:butt;stroke-linejoin:miter;stroke-opacity:1"
       d="m 107.74523,246.11126 3.56699,-1.57004 10.70144,-3.57305 16.48245,-4.07922 15.46127,-2.67039 17.30735,-2.99093 66.08392,-11.61667 68.5963,56.44317 97.32723,-85.71647 131.94103,-23.37388 -178.23199,155.86459 125.49454,99.99099 -132.74833,23.49913 -68.98485,-56.32447 -96.776,85.59209 L 52.171759,498.77986 227.51551,344.79243 Z"
       id="path261" /><path
       style="fill:#0a0a0a;fill-opacity:0.15;stroke:none;stroke-width:1px;stroke-linecap:butt;stroke-linejoin:miter;stroke-opacity:1"
       d="M 668.37294,143.60732 800.52055,120.3911 871.56301,178.52379 966.1541,91.118134 1097.45,67.783383 922.15275,222.02012 1045.8,323.42592 912.10326,346.95579 843.49487,291.32757 747.17699,376.25467 615.03913,399.4273 790.62742,245.19274 Z"
       id="path263" /><path
       style="fill:#0a0a0a;fill-opacity:0.15;stroke:none;stroke-width:1px;stroke-linecap:butt;stroke-linejoin:miter;stroke-opacity:1"
       d="m 1189.7161,51.634347 99.3248,-17.521321 -52.8227,255.713334 -99.496,17.45505 z"
       id="path265" /><path
       style="display:inline;fill:#0a0a0a;fill-opacity:0.15;stroke:none;stroke-width:1px;stroke-linecap:butt;stroke-linejoin:miter;stroke-opacity:1"
       d="m 1385.8201,257.43584 51.3484,-249.3865113 -98.7981,17.1219863 -52.8329,255.930945 17.5119,-3.33087 18.2057,-3.23406 22.0033,-3.89801 8.8945,-1.86424 9.0009,-2.4375 5.6766,-1.76194 5.8553,-2.11292 z"
       id="path267"
       sodipodi:nodetypes="cccccccccccc" /></g></g>
<metadata
   id="metadata1959"><rdf:RDF><cc:Work
       rdf:about=""><dc:title>Insomnia XXII - Logo</dc:title><dc:date>2022-08-18</dc:date><dc:creator><cc:Agent><dc:title>Tatu-Topias Paski</dc:title></cc:Agent></dc:creator></cc:Work></rdf:RDF></metadata><g
   inkscape:groupmode="layer"
   id="layer2"
   inkscape:label="Insomnia"><g
     aria-label="INSOMNIA"
     transform="matrix(0.99237352,-0.17498282,0,1.0076851,-2.8582374,-1.945886)"
     id="text23"
     style="font-weight:800;font-size:205.982px;font-family:Orbitron-ExtraBold, Orbitron;fill:#fefffe;stroke-width:1.01427"><path
       d="m 193.42757,455.93903 h 32.13319 V 307.63199 h -32.13319 z"
       id="path314" /><path
       d="M 354.50535,406.50335 271.49461,307.63199 H 238.53749 V 455.93903 H 270.4647 V 356.6557 l 83.42271,99.28333 h 32.95712 V 307.63199 h -32.33918 z"
       id="path316" /><path
       d="m 557.19139,338.11732 c 0,-16.89052 -13.80079,-30.48533 -30.48533,-30.48533 h -87.33637 c -16.89052,0 -30.48534,13.59481 -30.48534,30.48533 v 29.24945 c 0,16.89052 13.59482,30.48533 30.48534,30.48533 h 85.48253 v 25.95373 H 440.81156 V 411.6529 h -31.92721 v 13.80079 c 0,16.89052 13.59482,30.48534 30.48534,30.48534 h 87.33637 c 16.68454,0 30.48533,-13.59482 30.48533,-30.48534 v -29.24944 c 0,-16.89053 -13.80079,-30.48534 -30.48533,-30.48534 h -85.8945 v -25.95373 h 84.04066 v 12.15294 h 32.33917 z"
       id="path318" /><path
       d="m 609.30455,307.63199 c -16.89053,0 -30.48534,13.59481 -30.48534,30.48533 v 87.33637 c 0,16.89052 13.59481,30.48534 30.48534,30.48534 h 87.33636 c 16.68454,0 30.48534,-13.59482 30.48534,-30.48534 v -87.33637 c 0,-16.89052 -13.8008,-30.48533 -30.48534,-30.48533 z m 1.44187,32.13319 h 84.04065 v 84.04065 h -84.04065 z"
       id="path320" /><path
       d="M 833.00082,367.57275 782.74121,307.63199 H 749.78409 V 455.93903 H 781.7113 V 356.6557 l 51.28952,60.76469 c 16.47856,-19.3623 34.39899,-41.1964 51.08353,-60.97067 v 99.48931 h 32.13319 V 307.63199 h -33.1631 z"
       id="path322" /><path
       d="m 1056.9031,406.50335 -83.01071,-98.87136 h -32.95711 v 148.30704 h 31.9272 V 356.6557 l 83.42272,99.28333 h 32.9571 V 307.63199 h -32.3392 z"
       id="path324" /><path
       d="m 1112.518,455.93903 h 32.1332 V 307.63199 h -32.1332 z"
       id="path326" /><path
       d="m 1188.5252,307.63199 c -16.8905,0 -30.4853,13.59481 -30.4853,30.48533 v 117.82171 h 31.9272 V 408.1512 h 84.0406 v 47.78783 h 32.3392 V 338.11732 c 0,-16.89052 -13.8008,-30.48533 -30.6913,-30.48533 z m 1.4419,68.38602 v -36.25283 h 84.0406 v 36.25283 z"
       id="path328" /></g></g></svg>
